<?xml version="1.0" standalone="no"?>
<!DOCTYPE svg PUBLIC "-//W3C//DTD SVG 20010904//EN"
 "http://www.w3.org/TR/2001/REC-SVG-20010904/DTD/svg10.dtd">
<svg version="1.0" xmlns="http://www.w3.org/2000/svg"
 width="2048.000000pt" height="2048.000000pt" viewBox="0 0 2048.000000 2048.000000"
 preserveAspectRatio="xMidYMid meet">

<g transform="translate(0.000000,2048.000000) scale(0.100000,-0.100000)"
fill="#000000" stroke="none">
<path d="M10775 17158 c-66 -5 -134 -13 -151 -18 -17 -6 -53 -10 -80 -11 -27
0 -71 -4 -99 -9 -27 -6 -104 -14 -170 -20 -66 -6 -160 -15 -210 -20 -49 -6
-196 -14 -325 -19 -130 -6 -256 -15 -280 -20 -25 -6 -79 -11 -120 -11 -134 -1
-426 -40 -495 -67 -22 -8 -76 -26 -120 -39 -126 -36 -277 -90 -320 -113 -22
-11 -44 -21 -50 -21 -33 0 -388 -225 -555 -351 -335 -254 -593 -494 -979 -914
-30 -33 -116 -123 -190 -200 -154 -158 -212 -222 -291 -315 -30 -36 -57 -67
-60 -70 -12 -11 -151 -191 -225 -290 -75 -101 -295 -429 -385 -575 -331 -532
-588 -1219 -695 -1855 -54 -320 -85 -631 -85 -844 0 -121 -18 -469 -41 -791
-15 -205 -13 -1538 2 -1639 64 -434 174 -825 371 -1320 111 -280 180 -422 387
-800 243 -445 365 -610 665 -903 221 -217 376 -353 831 -733 187 -156 376
-315 420 -353 44 -38 105 -89 135 -112 70 -54 480 -312 618 -389 259 -145 668
-303 1006 -391 92 -23 114 -25 334 -25 299 0 445 15 731 75 171 36 226 63 421
205 71 51 224 115 322 135 42 8 122 15 177 15 83 0 119 -6 218 -34 222 -63
367 -82 743 -97 274 -10 342 -7 500 22 112 21 289 84 437 154 141 68 166 84
350 231 109 87 200 161 203 164 3 3 52 47 110 97 252 219 515 516 752 848 175
246 252 388 371 685 92 228 96 240 146 430 22 85 50 189 61 230 133 495 179
738 212 1125 14 175 13 2134 -2 2186 -6 19 -10 72 -10 118 0 47 -4 110 -10
140 -5 31 -19 121 -31 201 -12 80 -25 168 -30 195 -5 28 -14 88 -20 135 -22
178 -45 316 -74 440 -20 87 -31 144 -44 220 -5 31 -18 89 -30 130 -12 41 -29
102 -37 135 -9 33 -20 71 -24 85 -4 14 -13 43 -18 65 -36 133 -225 717 -242
747 -6 10 -10 26 -10 36 0 10 -4 22 -8 28 -5 5 -21 45 -36 89 -15 44 -31 89
-36 100 -5 11 -28 67 -50 125 -22 58 -45 114 -50 125 -9 19 -95 279 -122 370
-6 22 -15 45 -18 50 -4 6 -14 33 -24 60 -10 28 -21 59 -26 70 -4 11 -37 92
-73 180 -88 214 -281 621 -357 750 -9 17 -31 55 -47 85 -279 514 -659 937
-1153 1285 -103 72 -473 305 -595 374 -369 210 -759 349 -1190 426 -44 8 -87
14 -95 13 -8 -1 -69 -5 -135 -10z"/>
</g>
</svg>
